# xmcd
# Track frame offsets:
# 150
# 14224
# 32385
# 48423
# 65850
# 83462
# 99497
# 115491
# 135995
# 151387
# 173362
# 187595
#
# Disc length: 2709 seconds
# Revision: 0
# Processed by: cddbd v1.5.2PL0 Copyright (c) Steve Scherf et al.
# Submitted via: VisiTrax 2.10.3.257 - For more info visit www.synapsa.com
#
DISCID=8c0a930c
DTITLE=Ella Fitzgerald - The Very Best Of Gershwin Song Book
DYEAR=1900
DGENRE=
TTITLE0=I Got Rythm
TTITLE1=Oh, Lady Be Good
TTITLE2=Nice Work if you can get it
TTITLE3=The Man I Love
TTITLE4=Love is here to stay
TTITLE5=But Not For Me
TTITLE6=A Foggy Day
TTITLE7=Someone to watch over me
TTITLE8=Fascinating Rythm
TTITLE9=Embraceable you
TTITLE10=They Cant take that away from me
TTITLE11=S'Wonderful
EXTD=
EXTT0=
EXTT1=
EXTT2=
EXTT3=
EXTT4=
EXTT5=
EXTT6=
EXTT7=
EXTT8=
EXTT9=
EXTT10=
EXTT11=
PLAYORDER=
